<svg width="118" height="108" viewBox="0 0 118 108" fill="none" xmlns="http://www.w3.org/2000/svg">
<g filter="url(#filter0_d_33_388)">
<rect x="19" y="1" width="98" height="87" rx="16" stroke="white" stroke-width="2" shape-rendering="crispEdges"/>
</g>
<path d="M72.5 57.8C71.7667 57.8 71.05 57.7 70.35 57.5C69.6833 57.3 69 57.1333 68.3 57L68.4 56.8C68.3 56.5333 68.05 56.3667 67.65 56.3C67.2833 56.2333 66.8833 56.1833 66.45 56.15C66.0167 56.15 65.6833 56.1167 65.45 56.05L65.2 55.75H65.05C64.6833 55.75 64.3667 55.65 64.1 55.45C63.8333 55.2833 63.5833 55.0833 63.35 54.85L62.6 54.95L62.4 54.6V54.35L62.15 54.1L61.95 54.35C61.6167 54.2833 61.2333 54.1333 60.8 53.9C60.4 53.6667 60.1833 53.3667 60.15 53C59.9833 52.8333 59.7167 52.5167 59.35 52.05C59.0167 51.55 58.6667 51.05 58.3 50.55C57.9667 50.0167 57.7167 49.6333 57.55 49.4L57.8 48.95L57.65 48.65L57.45 48.7C57.25 48.5333 57.1333 48.3 57.1 48C57.1 47.7 57.1167 47.4333 57.15 47.2L56.75 46.8H56.6C56.5667 47.0333 56.4667 47.3167 56.3 47.65C56.1667 47.9833 55.95 48.15 55.65 48.15V47.8L55.35 47.4H55.3C55.1667 47.4 55.05 47.4667 54.95 47.6C54.8833 47.7 54.8833 47.8333 54.95 48C54.85 48.1333 54.75 48.2667 54.65 48.4C54.55 48.5 54.5 48.6333 54.5 48.8L54.75 49.25L55.15 49.15L55.35 49.25C55.35 49.35 55.15 49.6167 54.75 50.05C54.35 50.4833 53.9333 51.0167 53.5 51.65C53.0667 52.25 52.8 52.8833 52.7 53.55L52.1 53.9L52.5 54.15L52.7 54.55L52.35 55.2L52.55 55.4C52.5833 55.5667 52.6167 55.7333 52.65 55.9C52.7167 56.1 52.8 56.2667 52.9 56.4L53.15 56.5C53.4833 56.5 53.8667 56.3833 54.3 56.15C54.7667 55.9167 55.2167 55.6333 55.65 55.3C56.1167 55 56.4833 54.7667 56.75 54.6L56.95 54.85C56.9167 54.9833 56.7333 55.2333 56.4 55.6C56.1 56 55.7667 56.3833 55.4 56.75C55.0333 57.1167 54.7833 57.4 54.65 57.6H54C53.5 57.6 52.9 57.5167 52.2 57.35C51.5 57.2167 50.8667 56.9667 50.3 56.6C49.7667 56.2667 49.5 55.7833 49.5 55.15C49.5 54.3833 49.7 53.45 50.1 52.35C50.5 51.2167 50.9833 50.05 51.55 48.85C52.15 47.65 52.75 46.5167 53.35 45.45C53.9833 44.3833 54.5 43.5 54.9 42.8L54.75 42.55C54.45 42.55 54.25 42.35 54.15 41.95C54.0833 41.55 54.0333 41.1333 54 40.7C54 40.2667 53.9167 40.0167 53.75 39.95H53.7L53.6 39.6L53.8 39.05C54.2667 38.8833 54.75 38.7333 55.25 38.6C55.75 38.4333 56.2667 38.35 56.8 38.35L56.6 38.45L57.45 38.75L59.9 35C59.5333 35 58.85 35.0833 57.85 35.25C56.8833 35.4167 55.7667 35.6333 54.5 35.9C53.2667 36.1667 52.05 36.4833 50.85 36.85C49.6833 37.1833 48.7 37.55 47.9 37.95C47.1333 38.3167 46.7167 38.6833 46.65 39.05L47.05 39.2C47.2833 39.0667 47.5167 39 47.75 39C48.0167 38.9667 48.2833 38.95 48.55 38.95L49.25 38.7L49.2 38.8C48.4667 39.2667 47.8 39.8 47.2 40.4C46.6 40.9667 46 41.5667 45.4 42.2L45.1 42.3L44.9 42.65L44.35 42.75L44.3 42.85L44.35 43.75L42.65 42.9C42.5167 42.5333 42.3167 42.2 42.05 41.9C41.8167 41.6 41.7 41.25 41.7 40.85C42.9667 39.2833 44.4833 38.1 46.25 37.3C48.0167 36.4667 49.7667 35.6333 51.5 34.8L51.45 34.85C51.5167 34.8833 51.6167 34.9167 51.75 34.95C51.8833 34.9833 51.9833 35 52.05 35C52.3167 35 52.5833 34.95 52.85 34.85C53.1167 34.7167 53.3833 34.6167 53.65 34.55V34.65C53.95 34.5833 54.25 34.5167 54.55 34.45C54.85 34.35 55.1667 34.2333 55.5 34.1V34.2L56.25 33.95V33.9L56.5 33.95L56.45 33.9L57 33.65L57.3 33.75L57.2 33.65H57.35V33.75H58.1L58.45 33.6L58.55 33.45L59.9 33.5L59.95 33.45L60.4 33.25C60.6333 33.25 60.85 33.25 61.05 33.25C61.2833 33.2167 61.5167 33.2 61.75 33.2C61.9833 32.9333 62.1833 32.6167 62.35 32.25C62.55 31.8833 62.8667 31.7 63.3 31.7C63.7667 31.7 64.1833 31.8 64.55 32C64.9167 32.2 65.3167 32.3 65.75 32.3C65.8167 32.5 66.0833 32.7 66.55 32.9C67.0167 33.0667 67.5333 33.2167 68.1 33.35C68.7 33.45 69.2667 33.5333 69.8 33.6C70.3333 33.6333 70.7167 33.65 70.95 33.65L73.1 34.3L73.25 34.25C73.55 34.25 73.9667 34.45 74.5 34.85C75.0333 35.25 75.55 35.6833 76.05 36.15C76.5833 36.6167 76.9667 36.9667 77.2 37.2C77.2667 37.4333 77.3333 37.6833 77.4 37.95C77.4667 38.2167 77.5667 38.4667 77.7 38.7C77.5667 39.9667 77.3333 40.9167 77 41.55C76.6667 42.15 76.1833 42.5833 75.55 42.85C74.9167 43.1167 74.05 43.4 72.95 43.7L72.3 43.65V43.9H72.2L72 43.7L70 44.3V44C69.3667 44.4333 68.8833 44.65 68.55 44.65C68.25 44.65 67.7667 44.6833 67.1 44.75L67.05 44.65C66.9167 44.7833 66.7833 44.8667 66.65 44.9C66.5167 44.9 66.3667 44.9 66.2 44.9C65.6667 44.9 65.1667 45.0333 64.7 45.3C64.2667 45.5667 63.8 45.6667 63.3 45.6V45.85L63.05 45.8L62.85 45.6L62.75 45.8V45.85L62.65 45.8C62.5833 45.7667 62.5167 45.75 62.45 45.75C62.3833 45.7167 62.3167 45.7 62.25 45.7C62.0833 45.7 61.9167 45.7333 61.75 45.8C61.5833 45.8333 61.4167 45.85 61.25 45.85L61.3 45.55L61.2 45.6C60.9 45.5333 60.5833 45.5333 60.25 45.6C59.95 45.6667 59.65 45.7333 59.35 45.8C60.1833 47.5333 60.9667 48.9667 61.7 50.1C62.4333 51.2 63.2833 52.2 64.25 53.1C65.25 54 66.5333 55 68.1 56.1C68.9667 56.1667 69.8333 56.3167 70.7 56.55C71.5667 56.8167 72.45 56.95 73.35 56.95C73.85 56.95 74.35 56.9 74.85 56.8C75.35 56.7 75.85 56.65 76.35 56.65H76.55C76.35 56.8167 75.9833 56.9833 75.45 57.15C74.9167 57.35 74.3667 57.5 73.8 57.6C73.2333 57.7333 72.8 57.8 72.5 57.8ZM58.85 44.65C60.8167 44.2833 62.75 43.8833 64.65 43.45C66.5833 43.0167 68.4667 42.4667 70.3 41.8L70.35 41.75C70.95 41.5167 71.5833 41.25 72.25 40.95C72.9167 40.6167 73.5 40.2 74 39.7C74.5 39.2 74.75 38.6 74.75 37.9C74.6167 37.6 74.4333 37.2833 74.2 36.95C73.9667 36.6167 73.65 36.4167 73.25 36.35C72.9833 36.2167 72.6 36.05 72.1 35.85C71.6333 35.6167 71.15 35.4 70.65 35.2C70.15 35 69.7333 34.8833 69.4 34.85V34.9H69.25C69.05 34.8 68.8667 34.75 68.7 34.75C68.5667 34.75 68.4333 34.7667 68.3 34.8C68.1667 34.8333 68.0167 34.85 67.85 34.85L67.45 34.55H66.85C66.4833 34.55 66.1167 34.55 65.75 34.55C65.3833 34.5167 65.0167 34.4833 64.65 34.45C64.2167 34.85 63.6667 35.4167 63 36.15C62.3667 36.85 61.75 37.5833 61.15 38.35C60.5833 39.0833 60.1833 39.7333 59.95 40.3V40.8C59.5833 40.9667 59.2833 41.25 59.05 41.65C58.8167 42.05 58.6167 42.4167 58.45 42.75C58.7167 43.45 58.85 44.0833 58.85 44.65ZM73.25 36.35C73.45 36.45 73.5667 36.5167 73.6 36.55C73.6333 36.55 73.55 36.5 73.35 36.4L73.25 36.35ZM57.3 54.4L56.95 54.3C56.95 54.1333 57.05 53.9833 57.25 53.85C57.4833 53.6833 57.6667 53.5833 57.8 53.55L57.95 53.65L57.3 54.4ZM76.6375 54.95C76.4042 54.95 76.0708 54.8167 75.6375 54.55C75.2375 54.25 74.8542 53.9167 74.4875 53.55C74.1542 53.1833 73.9875 52.8833 73.9875 52.65C73.9875 52.55 74.1875 52.4167 74.5875 52.25C74.9875 52.05 75.4542 51.85 75.9875 51.65C76.5542 51.4167 77.0708 51.2 77.5375 51C78.0042 50.8 78.3208 50.6333 78.4875 50.5V50.6C78.4875 50.7667 78.3875 51 78.1875 51.3C78.0208 51.6 77.8708 51.8167 77.7375 51.95L77.8375 52.4L77.7875 53C77.6875 53.1333 77.5875 53.3667 77.4875 53.7C77.4208 54 77.3208 54.2833 77.1875 54.55C77.0875 54.8167 76.9042 54.95 76.6375 54.95ZM74.7043 65.8C73.3376 65.8 72.271 65.45 71.5043 64.75C70.7043 64.05 70.1376 63.15 69.8043 62.05C69.471 60.95 69.3043 59.8167 69.3043 58.65C69.3043 58.45 69.371 58.2333 69.5043 58C69.6043 57.7667 69.771 57.65 70.0043 57.65L70.1543 57.7C70.0543 57.8333 70.0043 57.9667 70.0043 58.1C69.971 58.2333 69.9543 58.3833 69.9543 58.55C69.9543 59.4167 70.1876 60.2167 70.6543 60.95C71.121 61.6833 71.7376 62.2667 72.5043 62.7C73.271 63.1333 74.0876 63.35 74.9543 63.35C77.021 63.35 78.871 62.9 80.5043 62C82.171 61.1333 83.721 59.9833 85.1543 58.55C85.621 58.0833 86.1876 57.3167 86.8543 56.25C87.5543 55.2167 88.2876 54.0167 89.0543 52.65C89.821 51.2833 90.571 49.85 91.3043 48.35C92.071 46.8167 92.7543 45.3333 93.3543 43.9C93.9876 42.4667 94.4876 41.1667 94.8543 40C95.2543 38.8333 95.4543 37.9333 95.4543 37.3L94.9043 38.1V37.95C95.1043 37.45 95.3043 36.95 95.5043 36.45C95.7043 35.95 95.871 35.45 96.0043 34.95C94.4043 35.0167 92.8043 35.25 91.2043 35.65C89.6376 36.0167 88.171 36.6 86.8043 37.4L87.0543 37.7L85.6543 38.85C85.221 38.95 84.9043 39.2 84.7043 39.6C84.5376 39.9667 84.421 40.35 84.3543 40.75L84.1543 40.85V41.3C84.1543 41.7 84.271 41.9667 84.5043 42.1C84.7376 42.2 85.021 42.25 85.3543 42.25C85.4876 42.25 85.621 42.25 85.7543 42.25C85.8876 42.25 86.021 42.2333 86.1543 42.2V42.3L85.7043 42.85L85.5543 42.9C84.6876 42.9 83.9876 42.6333 83.4543 42.1C82.921 41.5667 82.6376 40.8667 82.6043 40C82.871 39.6333 83.021 39.3833 83.0543 39.25C83.121 39.1167 83.171 38.9833 83.2043 38.85C83.2376 38.7167 83.3543 38.5167 83.5543 38.25C83.7543 37.9833 84.1376 37.5667 84.7043 37C84.9376 36.9 85.1376 36.75 85.3043 36.55C85.471 36.35 85.671 36.2333 85.9043 36.2V36.8C86.071 36.7 86.2543 36.5833 86.4543 36.45C86.6543 36.3167 86.7543 36.1333 86.7543 35.9L87.8543 35.45L88.1043 35.6L88.1543 35.55L87.9543 35.2C89.2876 34.8333 90.621 34.5333 91.9543 34.3C93.321 34.0333 94.671 33.8333 96.0043 33.7L96.1043 33.55L96.2043 32.5L96.5043 32.15L96.4543 31.8L96.9543 31.2V31.1L96.2043 30.55C96.571 30.4167 96.971 30.3 97.4043 30.2C97.8376 30.0667 98.221 29.8833 98.5543 29.65C98.9543 29.75 99.3876 29.8 99.8543 29.8C100.321 29.7667 100.721 29.8833 101.054 30.15C101.021 30.6167 100.954 31.0833 100.854 31.55C100.788 31.9833 100.688 32.4333 100.554 32.9L99.6543 33.3C99.9543 33.3333 100.421 33.4 101.054 33.5C101.721 33.5667 102.388 33.6833 103.054 33.85C103.754 34.0167 104.354 34.2333 104.854 34.5C105.354 34.7333 105.604 35.05 105.604 35.45C105.604 35.55 105.588 35.65 105.554 35.75C105.521 35.8167 105.504 35.8833 105.504 35.95C104.938 35.35 104.254 34.95 103.454 34.75C102.654 34.5167 101.854 34.4333 101.054 34.5L100.004 34.55C99.7043 36.25 99.1543 38.05 98.3543 39.95C97.5543 41.8167 96.6376 43.65 95.6043 45.45C94.6043 47.25 93.6043 48.8833 92.6043 50.35C92.371 50.6833 92.0543 51.05 91.6543 51.45C91.2876 51.85 91.0543 52.2333 90.9543 52.6C90.7876 52.6667 90.5876 52.9667 90.3543 53.5C90.121 54.0333 89.8876 54.5667 89.6543 55.1C89.4543 55.6667 89.2876 56.0667 89.1543 56.3C88.8876 56.4333 88.6376 56.6 88.4043 56.8C88.171 57.0333 87.971 57.2667 87.8043 57.5C87.8043 57.7333 87.5376 58.15 87.0043 58.75C86.471 59.3833 85.821 60.05 85.0543 60.75C84.2876 61.45 83.571 62.0667 82.9043 62.6C82.2376 63.1667 81.771 63.5333 81.5043 63.7C81.1376 64.2333 80.571 64.6167 79.8043 64.85C79.0043 65.1167 78.2876 65.2833 77.6543 65.35L77.4043 65.2L77.5543 65L77.3543 64.9L76.9543 65.1L76.5043 65L76.2543 65.15L76.6543 65.6C76.321 65.6667 76.0043 65.7167 75.7043 65.75C75.371 65.7833 75.0376 65.8 74.7043 65.8ZM88.7543 35.5C89.021 35.4333 89.3043 35.35 89.6043 35.25C89.9043 35.1167 90.171 34.9833 90.4043 34.85V34.75C90.271 34.8167 90.121 34.8833 89.9543 34.95C89.821 34.9833 89.6876 35.0167 89.5543 35.05L89.5043 35L88.6043 35.3L88.7543 35.5ZM83.8543 41.3L83.8043 40.6H83.6543C83.6543 40.6333 83.6376 40.6667 83.6043 40.7C83.6043 40.7333 83.6043 40.7833 83.6043 40.85C83.6043 41.05 83.6876 41.2 83.8543 41.3Z" fill="white"/>
<defs>
<filter id="filter0_d_33_388" x="0.1" y="0" width="117.9" height="107.9" filterUnits="userSpaceOnUse" color-interpolation-filters="sRGB">
<feFlood flood-opacity="0" result="BackgroundImageFix"/>
<feColorMatrix in="SourceAlpha" type="matrix" values="0 0 0 0 0 0 0 0 0 0 0 0 0 0 0 0 0 0 127 0" result="hardAlpha"/>
<feOffset dx="-9" dy="10"/>
<feGaussianBlur stdDeviation="4.45"/>
<feComposite in2="hardAlpha" operator="out"/>
<feColorMatrix type="matrix" values="0 0 0 0 0 0 0 0 0 0 0 0 0 0 0 0 0 0 0.5 0"/>
<feBlend mode="normal" in2="BackgroundImageFix" result="effect1_dropShadow_33_388"/>
<feBlend mode="normal" in="SourceGraphic" in2="effect1_dropShadow_33_388" result="shape"/>
</filter>
</defs>
</svg>
